HIERARCHY
ROOT Hips
{
	OFFSET 0.000000 0.000000 0.000000
	CHANNELS 6 Xposition Yposition Zposition Zrotation Yrotation Xrotation 
	JOINT LowerBack
	{
		OFFSET 0.000000 0.000000 0.000000
		CHANNELS 3 Zrotation Yrotation Xrotation
		JOINT Spine
		{
			OFFSET 0.028270 2.035590 -0.193380
			CHANNELS 3 Zrotation Yrotation Xrotation
			JOINT Spine1
			{
				OFFSET 0.056720 2.048850 -0.042750
				CHANNELS 3 Zrotation Yrotation Xrotation
				JOINT Neck
				{
					OFFSET 0.000000 0.000000 0.000000
					CHANNELS 3 Zrotation Yrotation Xrotation
					JOINT Neck1
					{
						OFFSET -0.054170 1.746240 0.172020
						CHANNELS 3 Zrotation Yrotation Xrotation
						JOINT Head
						{
							OFFSET 0.104070 1.761360 -0.123970
							CHANNELS 3 Zrotation Yrotation Xrotation
							End Site
							{
								OFFSET 0.000000 0.000000 0.000000
							}
						}
					}
				}
				JOINT LeftShoulder
				{
					OFFSET 0.000000 0.000000 0.000000
					CHANNELS 3 Zrotation Yrotation Xrotation
					JOINT LeftArm
					{
						OFFSET 3.362410 1.200890 -0.311210
						CHANNELS 3 Zrotation Yrotation Xrotation
						JOINT LeftForeArm
						{
							OFFSET 4.983000 -0.000000 -0.000000
							CHANNELS 3 Zrotation Yrotation Xrotation
							JOINT LeftHand
							{
								OFFSET 3.483560 -0.000000 -0.000000
								CHANNELS 3 Zrotation Yrotation Xrotation
								JOINT LeftFingerBase
								{
									OFFSET 0.000000 0.000000 0.000000
									CHANNELS 3 Zrotation Yrotation Xrotation
									JOINT LeftHandIndex1
									{
										OFFSET 0.715260 -0.000000 -0.000000
										CHANNELS 3 Zrotation Yrotation Xrotation
										End Site
										{
											OFFSET 0.000000 0.000000 0.000000
										}
									}
								}
								JOINT LThumb
								{
									OFFSET 0.000000 0.000000 0.000000
									CHANNELS 3 Zrotation Yrotation Xrotation
									End Site
									{
										OFFSET 0.000000 0.000000 0.000000
									}
								}
							}
						}
					}
				}
				JOINT RightShoulder
				{
					OFFSET 0.000000 0.000000 0.000000
					CHANNELS 3 Zrotation Yrotation Xrotation
					JOINT RightArm
					{
						OFFSET -3.136600 1.374050 -0.404650
						CHANNELS 3 Zrotation Yrotation Xrotation
						JOINT RightForeArm
						{
							OFFSET -5.241900 -0.000000 -0.000000
							CHANNELS 3 Zrotation Yrotation Xrotation
							JOINT RightHand
							{
								OFFSET -3.444170 -0.000000 -0.000000
								CHANNELS 3 Zrotation Yrotation Xrotation
								JOINT RightFingerBase
								{
									OFFSET 0.000000 0.000000 0.000000
									CHANNELS 3 Zrotation Yrotation Xrotation
									JOINT RightHandIndex1
									{
										OFFSET -0.622530 -0.000000 -0.000000
										CHANNELS 3 Zrotation Yrotation Xrotation
										End Site
										{
											OFFSET 0.000000 0.000000 0.000000
										}
									}
								}
								JOINT RThumb
								{
									OFFSET 0.000000 0.000000 0.000000
									CHANNELS 3 Zrotation Yrotation Xrotation
									End Site
									{
										OFFSET 0.000000 0.000000 0.000000
									}
								}
							}
						}
					}
				}
			}
		}
	}
}
}
MOTION
Frames: 14
Frame Time: 0.008333
6.917251 16.386854 -7.316339 -176.040594 28.361983 -173.460071 6.712891 -4.268800 -4.267434 0.932582 -4.928503 -3.006771 -6.176305 -4.825282 2.876897 8.182141 -21.071270 -10.797878 -2.671902 -0.173108 -0.774546 0.000000 0.000000 0.000000 1.097079 14.790169 0.127583 -40.875104 -2.323504 5.384454 -0.546467 -80.207633 0.006642 -1.617942 1.986141 -0.023223 -0.044848 0.214162 -0.000000 0.000000 0.000000 0.000000 0.000000 0.000000 0.000000 14.109332 -18.237616 -0.074409 73.977173 -13.581506 -8.844341 3.803399 30.274753 0.012732 0.530099 5.020770 0.018797 0.123285 -0.060193 0.000000 0.000000 0.000000 0.000000 0.000000 0.000000 0.000000 
7.017067 16.382371 -7.476808 -176.044765 27.550842 -173.713426 6.961732 -4.161465 -4.059715 0.974430 -4.831315 -2.992913 -6.158680 -4.731395 2.799147 8.138503 -20.818281 -10.755371 -2.705494 -0.176464 -0.765795 0.000000 0.000000 0.000000 1.015616 14.653044 0.107277 -42.002397 -2.081609 5.927405 -0.584536 -79.735561 0.006287 -1.600748 2.084657 -0.024297 -0.047554 0.208380 -0.000000 0.000000 0.000000 0.000000 0.000000 0.000000 0.000000 14.101346 -17.920323 -0.048927 73.688259 -13.007722 -8.643866 3.790574 30.226253 0.012416 0.438254 4.931855 0.014496 0.122915 -0.060916 0.000000 0.000000 0.000000 0.000000 0.000000 0.000000 0.000000 
7.113397 16.380465 -7.635310 -176.050289 26.739980 -173.916856 7.191787 -4.045238 -3.881304 1.010748 -4.724871 -2.984429 -6.146442 -4.628090 2.721546 8.114969 -20.545000 -10.708534 -2.740868 -0.180060 -0.755645 0.000000 0.000000 0.000000 0.917694 14.538323 0.085758 -43.187474 -1.806932 6.543360 -0.625574 -79.215101 0.005996 -1.604532 2.180987 -0.025774 -0.050038 0.201912 -0.000000 0.000000 0.000000 0.000000 0.000000 0.000000 0.000000 14.118349 -17.577085 -0.025709 73.350326 -12.386922 -8.341490 3.778984 30.183924 0.012126 0.374319 4.847604 0.011495 0.122358 -0.061574 0.000000 0.000000 0.000000 0.000000 0.000000 0.000000 0.000000 
7.206782 16.381383 -7.791540 -176.080984 25.928427 -174.079255 7.380839 -3.924275 -3.736266 1.037531 -4.611975 -2.981296 -6.138613 -4.518299 2.646199 8.110401 -20.253589 -10.658088 -2.777153 -0.183802 -0.744217 0.000000 0.000000 0.000000 0.800205 14.452490 0.064374 -44.411065 -1.497221 7.222099 -0.669449 -78.644415 0.005788 -1.637848 2.271244 -0.027553 -0.052153 0.194772 -0.000000 0.000000 0.000000 0.000000 0.000000 0.000000 0.000000 14.159603 -17.211616 -0.005535 72.966950 -11.719688 -7.949126 3.768301 30.145653 0.011863 0.332074 4.769573 0.009595 0.121693 -0.062209 0.000000 0.000000 0.000000 0.000000 0.000000 0.000000 0.000000 
7.297518 16.385259 -7.945293 -176.155044 25.116692 -174.210514 7.510547 -3.802268 -3.623528 1.051521 -4.495050 -2.983009 -6.134053 -4.404630 2.573599 8.121437 -19.941371 -10.603393 -2.813709 -0.187629 -0.731299 0.000000 0.000000 0.000000 0.662412 14.395972 0.044761 -45.660355 -1.143233 7.946983 -0.716299 -78.021012 0.005684 -1.708766 2.352938 -0.030137 -0.053768 0.186970 -0.000000 0.000000 0.000000 0.000000 0.000000 0.000000 0.000000 14.220556 -16.822271 0.011638 72.547070 -11.010794 -7.492786 3.758118 30.112354 0.011630 0.308171 4.697203 0.008496 0.120974 -0.062882 0.000000 0.000000 0.000000 0.000000 0.000000 0.000000 0.000000 
7.385689 16.392056 -8.096367 -176.285058 24.307740 -174.322205 7.565970 -3.681729 -3.536330 1.050346 -4.375290 -2.987547 -6.130317 -4.288481 2.506227 8.144559 -19.613949 -10.546446 -2.848482 -0.191315 -0.717493 0.000000 0.000000 0.000000 0.507846 14.376703 0.027778 -46.932818 -0.751532 8.701128 -0.767041 -77.328957 0.005702 -1.822612 2.424045 -0.033425 -0.054810 0.178582 -0.000000 0.000000 0.000000 0.000000 0.000000 0.000000 0.000000 14.293323 -16.416531 0.025661 72.097319 -10.252407 -6.976152 3.747753 30.075078 0.011435 0.288238 4.636429 0.007597 0.120327 -0.063656 0.000000 0.000000 0.000000 0.000000 0.000000 0.000000 0.000000 
7.471406 16.401706 -8.244543 -176.479569 23.507511 -174.426448 7.539463 -3.564274 -3.464017 1.033082 -4.253277 -2.992764 -6.124592 -4.170682 2.444586 8.173831 -19.271248 -10.487119 -2.879833 -0.194697 -0.702866 0.000000 0.000000 0.000000 0.340367 14.395064 0.014585 -48.229776 -0.319549 9.460842 -0.822790 -76.553584 0.005822 -1.981961 2.483440 -0.037722 -0.055253 0.169680 -0.000000 0.000000 0.000000 0.000000 0.000000 0.000000 0.000000 14.366144 -15.995610 0.037146 71.628539 -9.443598 -6.417880 3.736652 30.030148 0.011276 0.264250 4.588100 0.006600 0.119827 -0.064588 0.000000 0.000000 0.000000 0.000000 0.000000 0.000000 0.000000 
7.554479 16.414016 -8.389687 -176.738087 22.723439 -174.533961 7.430987 -3.450281 -3.394032 0.999814 -4.128804 -2.997348 -6.115748 -4.051246 2.384634 8.201288 -18.897285 -10.420224 -2.908327 -0.197875 -0.686131 0.000000 0.000000 0.000000 0.165203 14.437152 0.007086 -49.554452 0.172531 10.193182 -0.884521 -75.687032 0.006020 -2.185428 2.531067 -0.042926 -0.055113 0.160312 -0.000000 0.000000 0.000000 0.000000 0.000000 0.000000 0.000000 14.427768 -15.542690 0.047553 71.158250 -8.606201 -5.877115 3.724409 29.992293 0.011134 0.245630 4.541556 0.005802 0.119397 -0.065734 0.000000 0.000000 0.000000 0.000000 0.000000 0.000000 0.000000 
7.634644 16.428706 -8.531559 -177.056062 21.964286 -174.658365 7.245521 -3.339542 -3.308104 0.952014 -4.001121 -2.998064 -6.101028 -3.929582 2.325877 8.219966 -18.493135 -10.345521 -2.932231 -0.200671 -0.667437 0.000000 0.000000 0.000000 -0.015852 14.500868 0.006282 -50.911354 0.722768 10.867705 -0.953667 -74.712252 0.006253 -2.425624 2.565856 -0.048836 -0.054501 0.150606 -0.000000 0.000000 0.000000 0.000000 0.000000 0.000000 0.000000 14.463583 -15.059980 0.057819 70.697399 -7.738524 -5.376160 3.710803 29.960812 0.011003 0.232579 4.493856 0.005205 0.119036 -0.067135 0.000000 0.000000 0.000000 0.000000 0.000000 0.000000 0.000000 
7.711612 16.445386 -8.670297 -177.420974 21.235696 -174.801894 6.990456 -3.229828 -3.197332 0.892468 -3.868007 -2.991293 -6.074643 -3.803498 2.276866 8.225906 -18.082480 -10.270150 -2.945983 -0.202500 -0.648929 0.000000 0.000000 0.000000 -0.188730 14.617863 0.010927 -52.327560 1.272701 11.477474 -1.033713 -73.573571 0.006474 -2.695285 2.594871 -0.055452 -0.053655 0.140727 -0.000000 0.000000 0.000000 0.000000 0.000000 0.000000 0.000000 14.455239 -14.574963 0.065023 70.239695 -6.810728 -4.821203 3.693531 29.905507 0.010920 0.164809 4.481073 0.002508 0.119162 -0.068825 0.000000 0.000000 0.000000 0.000000 0.000000 0.000000 0.000000 
7.785017 16.463833 -8.805802 -177.818075 20.544698 -174.977536 6.684539 -3.120408 -3.043856 0.824015 -3.729359 -2.976940 -6.039489 -3.672871 2.225131 8.209798 -17.628618 -10.181164 -2.954233 -0.203919 -0.627225 0.000000 0.000000 0.000000 -0.362344 14.744845 0.024580 -53.786270 1.876217 11.972206 -1.124044 -72.293405 0.006620 -2.976777 2.615630 -0.062274 -0.052742 0.130692 -0.000000 0.000000 0.000000 0.000000 0.000000 0.000000 0.000000 14.396389 -14.047015 0.072384 69.810239 -5.882228 -4.360096 3.673692 29.882527 0.010821 0.109896 4.458186 0.000311 0.119243 -0.070816 0.000000 0.000000 0.000000 0.000000 0.000000 0.000000 0.000000 
7.854606 16.483637 -8.938292 -178.229241 19.892398 -175.186732 6.343803 -3.009233 -2.841112 0.750465 -3.584009 -2.953125 -5.993136 -3.536352 2.174162 8.168385 -17.144215 -10.081161 -2.954398 -0.204674 -0.603153 0.000000 0.000000 0.000000 -0.534792 14.893581 0.046847 -55.293867 2.499826 12.338812 -1.226375 -70.842883 0.006640 -3.253290 2.633542 -0.069100 -0.052054 0.120609 -0.000000 0.000000 0.000000 0.000000 0.000000 0.000000 0.000000 14.275664 -13.490665 0.077898 69.405297 -4.948285 -3.954741 3.649995 29.890096 0.010722 0.046360 4.438796 -0.002187 0.119401 -0.073111 0.000000 0.000000 0.000000 0.000000 0.000000 0.000000 0.000000 
7.920234 16.504499 -9.068122 -178.635326 19.277390 -175.427705 5.988356 -2.894835 -2.587568 0.676342 -3.431926 -2.918991 -5.934019 -3.393634 2.127237 8.099396 -16.643671 -9.973026 -2.944586 -0.204585 -0.577542 0.000000 0.000000 0.000000 -0.710669 15.073086 0.077101 -56.846726 3.116270 12.567755 -1.341579 -69.203930 0.006487 -3.504232 2.651715 -0.075528 -0.051895 0.110588 -0.000000 0.000000 0.000000 0.000000 0.000000 0.000000 0.000000 14.085239 -12.921865 0.079576 69.018913 -4.005487 -3.577323 3.621774 29.932938 0.010626 -0.034256 4.429823 -0.005284 0.119680 -0.075691 0.000000 0.000000 0.000000 0.000000 0.000000 0.000000 0.000000 
7.981964 16.526096 -9.195728 -179.022120 18.694112 -175.698146 5.633084 -2.776389 -2.286858 0.604331 -3.273605 -2.876098 -5.863891 -3.244935 2.081534 8.002320 -16.120917 -9.852723 -2.926265 -0.203861 -0.549218 0.000000 0.000000 0.000000 -0.894366 15.271004 0.115758 -58.429104 3.726620 12.645887 -1.468651 -67.380864 0.006134 -3.709795 2.675553 -0.081157 -0.052464 0.100632 -0.000000 0.000000 0.000000 0.000000 0.000000 0.000000 0.000000 13.825719 -12.333662 0.076455 68.650853 -3.087573 -3.254964 3.588335 30.044085 0.010517 -0.115132 4.422089 -0.008483 0.119899 -0.078532 0.000000 0.000000 0.000000 0.000000 0.000000 0.000000 0.000000 
